<svg width="20" height="20" viewBox="0 0 20 20" xmlns="http://www.w3.org/2000/svg"><path d="M10.043 8.265l3.183-3.183h-2.924L4.75 10.636v2.923l4.15-4.15v2.351l-2.158 2.159H8.9v2.137H4.7c-1.215 0-2.2-.936-2.2-2.09v-8.93c0-1.154.985-2.09 2.2-2.09h10.663l.033-.033.034.034c1.178.04 2.12.96 2.12 2.089v3.23H15.3V5.359l-2.906 2.906h-2.35zM7.951 5.082H4.75v3.201l3.201-3.2zm5.099 7.078v3.04h4.15v-3.04h-4.15zm-1.1-2.137h6.35c.635 0 1.15.489 1.15 1.092v5.13c0 .603-.515 1.092-1.15 1.092h-6.35c-.635 0-1.15-.489-1.15-1.092v-5.13c0-.603.515-1.092 1.15-1.092z"/></svg>